<?xml version="1.0" standalone="no"?>
<!DOCTYPE svg PUBLIC "-//W3C//DTD SVG 20010904//EN"
 "http://www.w3.org/TR/2001/REC-SVG-20010904/DTD/svg10.dtd">
<svg version="1.0" xmlns="http://www.w3.org/2000/svg"
 width="319.000000pt" height="319.000000pt" viewBox="0 0 319.000000 319.000000"
 preserveAspectRatio="xMidYMid meet">
<metadata>
Created by potrace 1.11, written by Peter Selinger 2001-2013
</metadata>
<g transform="translate(0.000000,319.000000) scale(0.100000,-0.100000)"
fill="#000000" stroke="none">
<path d="M97 2053 c-3 -10 -5 -123 -5 -250 1 -250 0 -247 53 -239 18 3 20 11
20 99 0 85 3 99 21 118 l21 21 30 -44 c107 -155 135 -192 151 -195 25 -4 68 7
56 15 -16 11 -184 263 -184 277 0 6 10 21 23 33 12 11 27 27 32 34 6 7 30 36
53 63 68 77 70 84 23 82 -36 -2 -44 -8 -107 -87 -38 -47 -76 -94 -86 -104 -10
-11 -18 -24 -18 -30 0 -5 -3 -6 -7 -2 -5 4 -9 53 -9 109 -1 56 -2 105 -3 110
-1 4 -14 7 -30 7 -20 0 -31 -6 -34 -17z"/>
<path d="M499 2068 c-4 -8 -7 -475 -3 -489 3 -11 15 -16 33 -15 l29 1 -1 188
c-2 176 4 224 20 180 5 -14 206 -346 220 -362 2 -3 19 -5 38 -6 l35 -2 -2 251
-3 251 -24 3 c-13 2 -27 -1 -30 -6 -3 -6 -5 -92 -4 -191 1 -100 -2 -181 -6
-181 -5 0 -12 9 -17 19 -5 11 -56 96 -114 190 -101 163 -106 170 -137 171 -18
0 -34 -1 -34 -2z"/>
<path d="M1053 2058 c2 -7 39 -121 82 -254 l77 -240 37 -1 37 -1 83 232 c106
300 101 276 58 276 l-35 0 -68 -205 c-37 -113 -71 -205 -75 -205 -3 0 -9 14
-13 32 -3 18 -31 110 -62 205 l-55 173 -35 0 c-25 0 -35 -4 -31 -12z"/>
<path d="M1510 1816 l0 -253 33 1 32 1 3 253 2 252 -35 0 -35 0 0 -254z"/>
<path d="M1780 2061 c0 -7 -4 -10 -10 -6 -13 8 -78 -58 -86 -89 -12 -49 4 -93
48 -131 23 -19 47 -35 53 -35 45 0 115 -65 115 -106 0 -24 -35 -66 -60 -73
-38 -9 -93 -2 -128 17 -20 12 -23 10 -32 -13 -6 -15 -10 -28 -10 -31 0 -12 61
-27 115 -29 119 -5 187 53 179 154 -4 52 -32 82 -117 126 -84 43 -97 56 -97
97 0 27 36 72 51 62 4 -2 10 0 13 4 7 12 81 2 106 -13 14 -9 25 44 11 58 -16
16 -151 23 -151 8z"/>
<path d="M2050 1816 l0 -254 33 2 32 3 3 251 2 252 -35 0 -35 0 0 -254z"/>
<path d="M2342 2054 c-33 -15 -127 -103 -118 -111 2 -3 -2 -19 -9 -37 -22 -52
-14 -172 14 -226 41 -79 95 -112 189 -115 50 -2 73 3 111 22 176 87 164 393
-18 469 -42 18 -126 17 -169 -2z m188 -90 c69 -80 72 -224 4 -297 -25 -27 -57
-44 -98 -53 -22 -4 -83 20 -110 44 -65 58 -71 220 -11 298 53 69 157 73 215 8z"/>
<path d="M2734 1818 l1 -253 32 -1 31 0 -2 193 c0 106 1 193 4 193 3 0 14 -15
24 -32 11 -18 64 -105 118 -194 104 -169 98 -163 161 -155 4 1 7 111 7 245 0
260 1 256 -49 256 -15 0 -17 -18 -16 -190 1 -177 -3 -216 -19 -172 -4 9 -55
94 -114 189 -106 171 -107 172 -143 173 l-36 0 1 -252z"/>
<path d="M2005 1342 c-6 -36 -9 -39 -42 -40 -46 -2 -90 -42 -99 -90 -13 -66
33 -110 81 -78 21 14 24 14 29 -1 11 -28 20 -5 43 110 26 136 27 137 9 137 -9
0 -17 -15 -21 -38z m-15 -77 c0 -16 -19 -79 -28 -93 -14 -21 -51 -23 -62 -3
-14 27 -4 63 25 88 25 22 65 27 65 8z"/>
<path d="M2156 1363 c-4 -15 -46 -222 -46 -230 0 -2 7 -3 15 -3 16 0 16 1 45
144 24 117 23 106 6 106 -8 0 -17 -8 -20 -17z"/>
<path d="M3027 1373 c-6 -11 -36 -172 -39 -210 -4 -45 15 -45 26 0 12 46 27
47 49 2 9 -19 23 -35 32 -35 19 0 19 1 -7 55 l-22 45 34 32 c29 27 32 33 17
36 -10 2 -29 -8 -42 -22 -37 -40 -44 -32 -30 34 7 32 10 62 7 65 -8 7 -20 6
-25 -2z"/>
<path d="M96 1362 c-3 -5 -8 -27 -12 -48 -3 -22 -12 -70 -20 -107 -8 -38 -11
-73 -8 -78 10 -17 34 12 34 41 0 15 8 38 18 50 l19 23 23 -56 c16 -39 29 -57
41 -57 16 0 15 7 -11 68 l-29 67 45 45 c24 25 44 49 44 53 0 19 -29 2 -78 -45
l-53 -53 6 40 c4 22 8 44 9 49 2 12 -21 19 -28 8z"/>
<path d="M514 1355 c-9 -22 5 -38 22 -24 18 15 18 25 -1 33 -9 3 -18 -1 -21
-9z"/>
<path d="M926 1362 c-8 -13 -31 -118 -42 -194 -5 -30 -3 -38 10 -38 11 0 18
13 22 41 4 22 14 47 22 56 14 14 18 13 34 -7 10 -12 18 -38 18 -57 0 -27 4
-34 17 -31 14 3 17 11 15 43 -2 22 -7 46 -12 54 -5 9 -1 20 11 30 52 45 21
111 -52 111 -21 0 -40 -4 -43 -8z m84 -57 c0 -24 -25 -45 -54 -45 -21 0 -21
53 0 74 21 22 54 4 54 -29z"/>
<path d="M1373 1358 c-4 -7 -9 -22 -10 -33 -2 -11 -6 -33 -9 -50 -27 -146 -26
-145 -10 -145 9 0 16 1 16 3 0 16 31 171 35 175 3 3 5 1 5 -5 0 -6 16 -49 36
-96 46 -111 61 -107 80 18 3 17 9 52 14 78 13 63 13 67 -4 67 -10 0 -18 -22
-26 -72 -7 -40 -15 -79 -19 -86 -4 -7 -18 17 -35 60 -29 75 -42 98 -57 98 -4
0 -11 -6 -16 -12z"/>
<path d="M334 1299 c-5 -8 -16 -49 -24 -91 -15 -72 -15 -78 1 -78 12 0 18 12
23 41 9 55 31 95 56 102 11 3 20 10 20 16 0 15 -37 14 -46 -1 -5 -8 -9 -6 -14
7 -5 15 -8 16 -16 4z"/>
<path d="M670 1300 c-15 -3 -29 -17 -34 -33 -9 -24 -6 -31 22 -57 38 -34 34
-58 -10 -56 -36 1 -49 -19 -19 -29 29 -9 65 3 80 27 10 16 10 26 1 49 -7 16
-18 29 -25 29 -19 0 -26 27 -10 40 7 6 21 10 31 8 23 -4 30 18 7 24 -10 2 -29
2 -43 -2z"/>
<path d="M1689 1298 c-29 -11 -56 -43 -69 -83 -21 -64 25 -114 75 -81 31 20
35 20 36 -1 0 -11 3 -13 6 -5 2 6 8 10 12 7 5 -2 11 24 14 58 4 34 9 72 13 83
5 19 1 22 -30 26 -19 2 -45 0 -57 -4z m45 -59 c-2 -79 -76 -122 -82 -48 -2 27
3 41 24 63 37 36 59 31 58 -15z"/>
<path d="M2312 1293 c-66 -32 -75 -132 -16 -164 23 -12 30 -11 62 6 49 26 72
86 51 130 -18 36 -57 48 -97 28z m69 -41 c12 -31 -18 -95 -46 -98 -46 -6 -61
53 -25 99 25 32 59 31 71 -1z"/>
<path d="M2580 1293 c-12 -8 -20 -10 -20 -4 0 6 -6 11 -14 11 -12 0 -36 -104
-36 -161 0 -39 27 -3 34 46 13 87 82 129 80 49 0 -21 -4 -54 -7 -72 -4 -27 -2
-33 11 -30 11 2 20 21 27 58 6 30 13 57 15 60 2 3 -2 15 -8 26 -14 27 -55 35
-82 17z"/>
<path d="M2797 1281 c-77 -73 -35 -186 57 -151 34 13 26 25 -16 25 -18 0 -35
7 -42 17 -13 21 -6 28 36 35 58 9 88 54 53 83 -25 21 -59 18 -88 -9z m69 -14
c12 -12 -18 -37 -42 -35 -28 3 -30 11 -9 31 15 15 38 17 51 4z"/>
<path d="M487 1218 c-8 -45 -13 -86 -10 -91 12 -19 31 18 43 85 15 86 15 82
-3 86 -11 2 -19 -18 -30 -80z"/>
<path d="M1131 1166 c-14 -17 -8 -46 9 -46 16 0 23 26 13 45 -9 15 -11 15 -22
1z"/>
</g>
</svg>
